<svg width="400" height="178" viewBox="0 0 400 178" xmlns="http://www.w3.org/2000/svg"><title>Dan Dvoracek logo | dandvoracek.com</title><g fill="#0D1926" fill-rule="evenodd"><path d="M177.995 43.428l22.186 64.524h1.056l22.187-64.524h21.481l-33.279 90.017h-21.834l-33.28-90.017zm170.308 90.017l-24.296-33.492-10.501 11.515v21.977H293.12V43.428h20.386v37.624h1.23l33.919-37.624h26.713l-38.356 41.668 35.72 48.35zm-289.154 0h-31.68V43.428h31.68c8.751 0 16.307 1.795 22.666 5.384 6.36 3.59 11.26 8.747 14.702 15.472 3.443 6.725 5.164 14.776 5.164 24.153 0 9.377-1.721 17.427-5.164 24.152-3.442 6.725-8.343 11.882-14.702 15.472-6.36 3.59-13.915 5.384-22.666 5.384zm-1.05-72.435H47.772v54.854h10.502c7.438 0 13.12-2.11 17.043-6.33 3.924-4.22 5.885-11.252 5.885-21.097 0-9.846-1.969-16.878-5.907-21.098-3.938-4.22-9.67-6.33-17.196-6.33z"></path><path fill-rule="nonzero" d="M0 177.258V171h400v6.258zm0-171V0h400v6.258z"></path></g></svg>